<svg xmlns="http://www.w3.org/2000/svg" width="42" height="42" viewBox="0 0 42 42">
  <g id="Group_833" data-name="Group 833" transform="translate(-2437 -1888)">
    <g id="Group_832" data-name="Group 832">
      <g id="Path_646" data-name="Path 646" transform="translate(2445.602 1901.823) rotate(-14)" fill="none" stroke-linecap="round" stroke-linejoin="round">
        <path d="M19.144,15.859a11.092,11.092,0,0,1-7.93,3.285A11.214,11.214,0,0,1,3.285,0C10.823,7.706,11.194,7.892,19.144,15.859Z" stroke="none"/>
        <path d="M 11.21431827545166 19.14398193359375 C 14.36680889129639 19.14398193359375 17.21547889709473 17.84319305419922 19.14403915405273 15.85940265655518 C 11.19447898864746 7.892282962799072 10.82261848449707 7.706342697143555 3.284588575363159 2.874145593523281e-06 C 1.210428595542908 2.130402803421021 -1.376647901452088e-06 4.888692855834961 8.623352186987177e-06 7.92969274520874 C 8.623352186987177e-06 14.12317276000977 5.020828723907471 19.14398193359375 11.21431827545166 19.14398193359375 M 11.21431827545166 21.14398193359375 C 7.684648513793945 21.14398193359375 4.366248607635498 19.76945304870605 1.870388627052307 17.27360343933105 C -0.6254613995552063 14.77775287628174 -1.999991416931152 11.45935249328613 -1.999991416931152 7.92969274520874 C -2.000001430511475 6.168462753295898 -1.656521320343018 4.458743095397949 -0.9791013598442078 2.848022937774658 C -0.3228713870048523 1.287652850151062 0.6295186281204224 -0.1399571299552917 1.851588606834412 -1.395167112350464 C 2.228046178817749 -1.781829118728638 2.744904756546021 -1.999958753585815 3.284600257873535 -1.999998450279236 C 3.822670221328735 -1.999998450279236 4.338027477264404 -1.78321635723114 4.714328765869141 -1.398507118225098 C 9.199198722839355 3.186502933502197 11.16768836975098 5.12902307510376 13.65986824035645 7.588342666625977 C 15.38838863372803 9.294073104858398 17.34753799438477 11.22738265991211 20.5598087310791 14.44675254821777 C 21.33161926269531 15.22026252746582 21.33974838256836 16.47002220153809 20.57806777954102 17.25351333618164 C 18.17445945739746 19.7259635925293 14.76149845123291 21.14398193359375 11.21431827545166 21.14398193359375 Z" stroke="none" fill="#707070"/>
      </g>
      <line id="Line_31" data-name="Line 31" y1="2.99" x2="2.99" transform="translate(2459.041 1902.298) rotate(-14)" fill="none" stroke="#707070" stroke-linecap="round" stroke-width="2"/>
      <line id="Line_32" data-name="Line 32" y2="7.172" transform="translate(2454.5 1918.5)" fill="none" stroke="#707070" stroke-linecap="round" stroke-width="2"/>
      <line id="Line_35" data-name="Line 35" x2="19" transform="translate(2445.5 1926.5)" fill="none" stroke="#707070" stroke-linecap="round" stroke-width="2"/>
      <g id="Group_831" data-name="Group 831">
        <path id="Path_648" data-name="Path 648" d="M1.215,1.753s4.909-3.073,9.574-.2a8.786,8.786,0,0,1,4.118,8" transform="matrix(0.998, 0.07, -0.07, 0.998, 2457.208, 1891.181)" fill="none" stroke="#707070" stroke-linecap="round" stroke-width="2"/>
        <path id="Path_649" data-name="Path 649" d="M1.215,1.208s3.035-1.9,5.918-.124A5.431,5.431,0,0,1,9.678,6.032" transform="matrix(0.998, 0.07, -0.07, 0.998, 2458.215, 1895.311)" fill="none" stroke="#707070" stroke-linecap="round" stroke-width="2"/>
      </g>
    </g>
    <rect id="Rectangle_1521" data-name="Rectangle 1521" width="42" height="42" transform="translate(2437 1888)" fill="none"/>
  </g>
</svg>
