<svg xmlns="http://www.w3.org/2000/svg" width="32" height="32.058" viewBox="0 0 32 32.058">
  <g id="Group_4" data-name="Group 4" transform="translate(-665 -228.942)">
    <g id="Group_3" data-name="Group 3">
      <path id="Exclusion_1" data-name="Exclusion 1" d="M27.1,32H2.391C1.073,32,0,30.654,0,29L.212,15.348a4.4,4.4,0,0,1,.244-1.074,12.138,12.138,0,0,1,1.139-1.6L9.827,1.359A4.126,4.126,0,0,1,10.967.233,2.977,2.977,0,0,1,12.461,0H27.1c1.319,0,2.391,1.346,2.391,3V29C29.495,30.654,28.422,32,27.1,32ZM12.44,2a.645.645,0,0,0-.289.07.991.991,0,0,0-.3.263L9.378,5.618a.478.478,0,0,0-.12.422.278.278,0,0,0,.289.156.613.613,0,0,0,.107-.009H24.2a1.528,1.528,0,0,0,.7-.153,1.437,1.437,0,0,0,.492-.559L26.78,2.484s.074-.319-.079-.4A1.405,1.405,0,0,0,26.227,2H12.485A.388.388,0,0,0,12.44,2Z" transform="translate(666 229)"/>
      <rect id="Rectangle_3" data-name="Rectangle 3" width="7.814" height="4" rx="1" transform="translate(665.129 235.264) rotate(-54)"/>
    </g>
    <rect id="Rectangle_4" data-name="Rectangle 4" width="32" height="32" transform="translate(665 229)" fill="none"/>
  </g>
</svg>
