<svg xmlns="http://www.w3.org/2000/svg" width="75.189" height="35.134" viewBox="0 0 75.189 35.134">
  <g id="Group_956" data-name="Group 956" transform="translate(-142.255 -37.933)">
    <g id="Group_26" data-name="Group 26" transform="translate(8 8)">
      <g id="Group_23" data-name="Group 23" transform="translate(174.617 41.466)">
        <line id="Line_7" data-name="Line 7" y2="17.476" fill="none" stroke="#000" stroke-linecap="round" stroke-width="3"/>
        <line id="Line_8" data-name="Line 8" x2="8.074" fill="none" stroke="#000" stroke-linecap="round" stroke-width="3"/>
        <line id="Line_9" data-name="Line 9" y1="7.598" transform="translate(8.074)" fill="none" stroke="#000" stroke-linecap="round" stroke-width="3"/>
        <line id="Line_10" data-name="Line 10" x2="8.074" transform="translate(0 7.598)" fill="none" stroke="#000" stroke-linecap="round" stroke-width="3"/>
      </g>
      <g id="Group_24" data-name="Group 24" transform="translate(187.243 41.466)">
        <line id="Line_7-2" data-name="Line 7" y2="17.476" transform="translate(0 0)" fill="none" stroke="#000" stroke-linecap="round" stroke-width="3"/>
        <line id="Line_8-2" data-name="Line 8" x2="8.074" transform="translate(0 0)" fill="none" stroke="#000" stroke-linecap="round" stroke-width="3"/>
        <line id="Line_10-2" data-name="Line 10" x2="8.074" transform="translate(0 7.598)" fill="none" stroke="#000" stroke-linecap="round" stroke-width="3"/>
        <line id="Line_20" data-name="Line 20" y2="17.476" transform="translate(8)" fill="none" stroke="#000" stroke-linecap="round" stroke-width="3"/>
      </g>
      <g id="Group_25" data-name="Group 25" transform="translate(199.869 40.813)">
        <line id="Line_9-2" data-name="Line 9" y1="7.598" transform="translate(8.074)" fill="none" stroke="#000" stroke-linecap="round" stroke-width="3"/>
        <line id="Line_10-3" data-name="Line 10" x2="8.074" transform="translate(0 7.598)" fill="none" stroke="#000" stroke-linecap="round" stroke-width="3"/>
        <line id="Line_21" data-name="Line 21" y1="10.286" x2="0.154" transform="translate(3.883 7.598)" fill="none" stroke="#000" stroke-linecap="round" stroke-width="3"/>
        <line id="Line_22" data-name="Line 22" y1="7.598" transform="translate(0.074)" fill="none" stroke="#000" stroke-linecap="round" stroke-width="3"/>
      </g>
    </g>
    <g id="Layer_x0020_1" transform="translate(-820.267 -1024.725)">
      <path id="Path_766" data-name="Path 766" d="M2648.026,2221.316c.084-1.794-.981-8.677,2.132-7.378,1.171.486.77,2.882.77,4.106,0,1.647-.053,3.367.032,4.993a6.492,6.492,0,0,0,2.628-.021c.517-1.942-.665-8.3.908-9.067,1.858-.918,2.132,1.045,2.122,2.438-.01,1.71,0,3.42.011,5.13a5.7,5.7,0,0,0,2.575-1.815c.084-1.942.464-5.784-.855-7.135a4.3,4.3,0,0,0-5.858.232c-.908-.19-1.235-1.531-3.874-1.256-3.673.391-3.473,3.673-3.251,7.262C2645.461,2220.355,2647.667,2221.284,2648.026,2221.316Z" transform="translate(-1672.441 -1136.72)" fill="#00b65f" fill-rule="evenodd"/>
      <path id="Path_767" data-name="Path 767" d="M3107,1604.818c6.935-.612,9.035,2.692,13.574,7.273,4.919,4.95,5.626,3.42-2.438,11.178-1.151,1.1-6.5,6.323-6.945,7.019a12.2,12.2,0,0,0,5.805-2.269l8.3-8.244c1.5-1.583,2.185-3.758.633-5.869l-8.223-8.318c-1.9-1.784-6.977-4.581-8.592-3.114A13.9,13.9,0,0,0,3107,1604.818Z" transform="translate(-2129.304 -533.712)" fill="#00b65f" fill-rule="evenodd"/>
      <path id="Path_768" data-name="Path 768" d="M2210.791,1082.547a10.415,10.415,0,0,1,.76-6.08,11.547,11.547,0,0,1,3.04-3.927l6-5.964c1.974-1.8,1.784-2.016,5,1.14,1.742,1.71,9.859,10.006,10.492,10.312a10.3,10.3,0,0,0-2.365-5.753l-8.106-8.254a4.373,4.373,0,0,0-6.037-.3c-.718.644-1.351,1.33-2.027,2.037l-6.164,6.143c-1.573,1.319-4.349,7-2.956,8.571A15.972,15.972,0,0,0,2210.791,1082.547Z" transform="translate(-1239.84 0)" fill="#00b65f" fill-rule="evenodd"/>
      <path id="Path_769" data-name="Path 769" d="M1773,2516.106a15.75,15.75,0,0,0,.982,3.293,5.561,5.561,0,0,0,1.4,2.671l8.212,8.328c4.317,3.842,7.378-.929,10.048-3.642,2.934-2.987,5.943-5.32,7.125-9.4.285-.96.771-2.48.074-3.272a15.8,15.8,0,0,0-2.269-2.079c.4,5.14-1.351,7.653-3.863,9.954-1.235,1.14-2.343,2.385-3.5,3.473-5.351,5-3.209,5.478-11.02-2.28C1779.059,2522.017,1773.823,2516.624,1773,2516.106Z" transform="translate(-809.384 -1434.044)" fill="#00b65f" fill-rule="evenodd"/>
      <path id="Path_770" data-name="Path 770" d="M1686.855,1199.277a16.8,16.8,0,0,1,1.752-1.858l.6-.908c-6.924.559-9.056-2.86-13.458-7.315-4.3-4.338-5.045-3.853-1.151-7.631,1.193-1.161,2.259-2.248,3.473-3.526l7-7.04c-1.087.074-4.919,1.3-5.636,1.974l-5.753,5.647c-2.5,2.523-4.887,4.317-4.19,7.251.528,2.185,5.489,6.407,7.177,8.106C1679.012,1196.343,1681.641,1199.056,1686.855,1199.277Z" transform="translate(-706.847 -107.199)" fill="#00b65f" fill-rule="evenodd"/>
    </g>
  </g>
</svg>
